<svg width="32" height="32" viewBox="0 0 32 32" fill="none" xmlns="http://www.w3.org/2000/svg">
<rect width="32" height="32" fill="white"/>
<path d="M15.9986 24.25C20.0702 24.25 23.401 21.1705 23.7041 17.2703L26.4959 17.4797C26.0816 22.8089 21.5385 27 15.9986 27C10.4589 26.9997 5.91836 22.8084 5.5041 17.4797L8.2959 17.2703C8.59909 21.1705 11.9277 24.2497 15.9986 24.25Z" fill="#0E172B"/>
<path fill-rule="evenodd" clip-rule="evenodd" d="M13.9 17.375H11.1V14.625H10.0814C7.51909 14.4351 5.50052 12.3547 5.5 9.81384C5.5 7.27247 7.51873 5.18986 10.0814 5H13.9V7.75H26.5V11.5004C26.3067 14.0173 24.1862 16 21.5986 16C19.0115 15.9995 16.8933 14.017 16.7 11.5004V10.5H13.9V17.375ZM19.5 11.7501C19.5829 12.5891 20.4911 13.2499 21.6 13.25C22.7088 13.2499 23.6172 12.589 23.7 11.7501V10.5H19.5V11.7501ZM9.82715 7.75C8.97299 7.83136 8.30013 8.72348 8.3 9.8125C8.30006 10.9016 8.97296 11.7936 9.82715 11.875H11.1V7.75H9.82715Z" fill="#0E172B"/>
</svg>
